<svg width="90" height="90" viewBox="0 0 90 90" fill="none" xmlns="http://www.w3.org/2000/svg">
<path fill-rule="evenodd" clip-rule="evenodd" d="M73.4462 37.3062C73.3985 37.3889 73.1257 37.7753 71.9271 38.0066C70.7387 38.236 69.0166 38.2234 66.8018 37.8383C62.3973 37.0725 56.6972 34.9493 50.8333 31.5638C44.9695 28.1783 40.2807 24.3035 37.4152 20.872C35.9743 19.1465 35.1024 17.6613 34.7068 16.5175C34.3078 15.3638 34.5061 14.9344 34.5538 14.8517C34.6016 14.769 34.8743 14.3826 36.073 14.1513C37.2613 13.922 38.9834 13.9345 41.1983 14.3196C45.6028 15.0854 51.3028 17.2086 57.1667 20.5941C63.0305 23.9796 67.7193 27.8544 70.5848 31.2859C72.0257 33.0115 72.8976 34.4966 73.2932 35.6404C73.6922 36.7941 73.494 37.2235 73.4462 37.3062ZM74.4041 40.3172C70.0648 42.5796 59.7785 40.1924 49.3333 34.1619C38.8884 28.1315 31.678 20.4172 31.4673 15.5279L16.3859 57.66C14.5319 60.8711 19.5369 67.2315 27.5647 71.8664C35.5925 76.5013 43.6033 77.6555 45.4572 74.4443L45.4573 74.4443L74.4041 40.3172Z" fill="white"/>
</svg>
