<svg width="289" height="71" viewBox="0 0 289 71" fill="none" xmlns="http://www.w3.org/2000/svg">
<style>
    g path { fill: #000 } @media (prefers-color-scheme:dark) { g path { fill: #fff } }
</style>
<path fill-rule="evenodd" clip-rule="evenodd" d="M11.1694 19.2906C11.8627 10.7514 16.5701 4.14893 24.4859 3.90691C15.2965 4.05219 7.36445 8.68519 5.54264 16.9984C5.18804 18.6932 4.94599 20.5336 4.81717 22.4868C6.65492 21.276 8.78318 20.2108 11.1691 19.2906H11.1694ZM10.1053 26.2963C10.1053 25.4732 9.70222 24.795 9.20253 24.795C8.70283 24.795 8.28349 25.4728 8.28349 26.2963C8.28349 27.1198 8.7025 27.8136 9.20253 27.8136C9.70255 27.8136 10.1053 27.1357 10.1053 26.2963Z" fill="#FF4848"/>
<path d="M11.1694 19.2906C11.8627 10.7514 16.5701 4.14893 24.4859 3.90691C15.2965 4.05219 7.36445 8.68519 5.54264 16.9984C5.18804 18.6932 4.94599 20.5336 4.81717 22.4868C6.65492 21.276 8.78318 20.2108 11.1691 19.2906H11.1694ZM10.1053 26.2963C10.1053 25.4732 9.70222 24.795 9.20253 24.795C8.70283 24.795 8.28349 25.4728 8.28349 26.2963C8.28349 27.1198 8.7025 27.8136 9.20253 27.8136C9.70255 27.8136 10.1053 27.1357 10.1053 26.2963Z" fill="url(#paint0_linear_6_3)"/>
<path fill-rule="evenodd" clip-rule="evenodd" d="M50.5845 19.8039C50.5845 19.8039 58.1168 44.7914 52.5943 65.1542C52.5943 65.1542 35.1086 76.6157 9.84465 65.7759C9.84465 65.7759 9.84465 53.4711 0.400261 29.0942C-0.642195 27.0972 6.33786 24.0357 16.5104 22.4574C31.0102 20.2078 50.5845 19.8039 50.5845 19.8039Z" fill="url(#paint1_linear_6_3)"/>
<path fill-rule="evenodd" clip-rule="evenodd" d="M28.9356 4.375C34.0302 5.56949 38.2539 9.83114 40.1242 15.1742C40.2048 15.4003 40.2855 15.6264 40.3659 15.8684C41.5104 19.3714 42.2362 23.5037 42.5585 28.298C42.7681 30.5417 42.8972 37.822 46.8148 36.676C49.0718 36.0141 49.0396 31.7042 49.0074 29.8479C48.9912 28.2657 48.8301 26.4742 48.5399 24.4885C48.2175 22.277 47.7501 19.8232 47.1212 17.1274C47.089 17.0144 47.0568 16.9176 47.0405 16.8046C43.7034 5.69848 37.287 0.0970554 27.8071 0.000312997C15.3449 -0.0482244 7.92889 5.61802 5.54297 16.9984C7.36478 8.68519 15.2965 4.05219 24.4862 3.90691C25.8727 3.85838 27.3559 4.00365 28.936 4.375H28.9356ZM46.2988 30.1544C47.0243 30.1544 47.6209 31.1228 47.6209 32.3176C47.6209 33.5124 47.0243 34.4968 46.2988 34.4968C45.5733 34.4968 44.9929 33.5284 44.9929 32.3176C44.9929 31.1068 45.5896 30.1544 46.2988 30.1544Z" fill="#592121"/>
<path d="M28.9356 4.375C34.0302 5.56949 38.2539 9.83114 40.1242 15.1742C40.2048 15.4003 40.2855 15.6264 40.3659 15.8684C41.5104 19.3714 42.2362 23.5037 42.5585 28.298C42.7681 30.5417 42.8972 37.822 46.8148 36.676C49.0718 36.0141 49.0396 31.7042 49.0074 29.8479C48.9912 28.2657 48.8301 26.4742 48.5399 24.4885C48.2175 22.277 47.7501 19.8232 47.1212 17.1274C47.089 17.0144 47.0568 16.9176 47.0405 16.8046C43.7034 5.69848 37.287 0.0970554 27.8071 0.000312997C15.3449 -0.0482244 7.92889 5.61802 5.54297 16.9984C7.36478 8.68519 15.2965 4.05219 24.4862 3.90691C25.8727 3.85838 27.3559 4.00365 28.936 4.375H28.9356ZM46.2988 30.1544C47.0243 30.1544 47.6209 31.1228 47.6209 32.3176C47.6209 33.5124 47.0243 34.4968 46.2988 34.4968C45.5733 34.4968 44.9929 33.5284 44.9929 32.3176C44.9929 31.1068 45.5896 30.1544 46.2988 30.1544Z" fill="url(#paint2_linear_6_3)"/>
<path fill-rule="evenodd" clip-rule="evenodd" d="M47.1209 17.1277C47.7497 19.8235 48.2172 22.277 48.5396 24.4888C50.2 22.9392 50.974 21.5832 50.8452 20.4047C50.8289 20.2594 50.7967 20.1141 50.7645 19.9688C50.4258 18.8388 49.2169 17.8864 47.1209 17.1277ZM13.378 34.2062C23.8248 34.8359 33.5464 32.8665 42.5585 28.298C42.2361 23.5037 41.5107 19.3711 40.3659 15.8684C36.8029 15.4003 33.0142 15.3518 28.9838 15.6909C18.956 19.0486 13.7486 25.2311 13.378 34.2062Z" fill="url(#paint3_linear_6_3)"/>
<path fill-rule="evenodd" clip-rule="evenodd" d="M28.9838 15.6909C18.956 19.0486 13.7486 25.2311 13.378 34.2062C11.524 34.0932 9.63781 33.8994 7.71938 33.6251C4.83343 32.8179 2.75397 31.8818 1.49627 30.784C0.577232 29.9931 0.14195 29.2182 0.0290619 28.4755C-0.277395 26.4253 1.89935 24.6015 3.75303 23.2291C4.10763 22.9708 4.4463 22.7288 4.81716 22.4864C6.65491 21.2757 8.78318 20.2105 11.1691 19.2903C15.9894 17.4502 21.9386 16.2554 28.9838 15.6905V15.6909ZM9.20252 24.7953C9.70222 24.7953 10.1053 25.4732 10.1053 26.2966C10.1053 27.1201 9.70222 27.8139 9.20252 27.8139C8.70283 27.8139 8.28348 27.1361 8.28348 26.2966C8.28348 25.4572 8.7025 24.7953 9.20252 24.7953Z" fill="url(#paint4_linear_6_3)"/>
<g>
<path d="M77.002 50.1691V23.5691H81.942V45.8371H94.064V50.1691H77.002ZM113.087 31.2071H117.761V50.1691H113.163V46.9011C112.061 48.8391 109.553 50.6251 106.247 50.6251C100.623 50.6251 96.6706 46.1411 96.6706 40.7071C96.6706 35.2351 100.623 30.7511 106.247 30.7511C109.553 30.7511 112.137 32.4611 113.087 34.4751V31.2071ZM101.459 40.7071C101.459 44.0131 103.739 46.6731 107.159 46.6731C110.313 46.6731 112.973 44.3551 112.973 40.7071C112.973 37.0591 110.313 34.7031 107.159 34.7031C103.739 34.7031 101.459 37.4011 101.459 40.7071ZM134.447 31.0551V35.8051H133.421C129.583 35.8051 127.797 38.0471 127.797 41.7331V50.1691H123.009V31.2071H127.645V35.3111C128.557 32.3091 131.103 31.0551 134.447 31.0551ZM152.608 31.2071H157.282V50.1691H152.684V46.9011C151.582 48.8391 149.074 50.6251 145.768 50.6251C140.144 50.6251 136.192 46.1411 136.192 40.7071C136.192 35.2351 140.144 30.7511 145.768 30.7511C149.074 30.7511 151.658 32.4611 152.608 34.4751V31.2071ZM140.98 40.7071C140.98 44.0131 143.26 46.6731 146.68 46.6731C149.834 46.6731 152.494 44.3551 152.494 40.7071C152.494 37.0591 149.834 34.7031 146.68 34.7031C143.26 34.7031 140.98 37.4011 140.98 40.7071ZM168.154 50.1691L160.288 31.2071H165.19L170.282 44.6971L175.374 31.2071H180.276L172.41 50.1691H168.154ZM201.49 42.3031H186.252C186.556 45.1531 188.38 47.0911 191.762 47.0911C194.08 47.0911 195.866 46.0651 196.778 44.6211H201.224C199.932 48.0031 196.284 50.6251 191.762 50.6251C185.302 50.6251 181.54 46.3311 181.54 40.6691C181.54 34.9311 185.682 30.7511 191.534 30.7511C197.5 30.7511 201.49 34.8931 201.49 40.7451V42.3031ZM191.61 34.1711C188.646 34.1711 186.594 36.0711 186.214 39.1491H196.93C196.626 36.2231 194.688 34.1711 191.61 34.1711ZM210.365 50.1691H205.577V22.4291H210.365V50.1691ZM235.176 41.8851H228.564V50.1691H225.524V23.5691H235.176C240.876 23.5691 244.676 27.8251 244.676 32.6891C244.676 37.5531 240.876 41.8851 235.176 41.8851ZM228.564 39.2631H234.872C239.28 39.2631 241.674 36.0331 241.674 32.6891C241.674 29.3451 239.28 26.1911 234.872 26.1911H228.564V39.2631ZM264.15 31.4731H267.038V50.1691H264.188V46.4071C263.048 48.4971 260.16 50.6251 256.36 50.6251C250.622 50.6251 246.784 45.9891 246.784 40.8211C246.784 35.6531 250.622 31.0171 256.36 31.0171C260.16 31.0171 263.124 33.1071 264.15 35.2731V31.4731ZM249.748 40.8211C249.748 44.8111 252.522 48.1931 256.854 48.1931C260.464 48.1931 264.074 45.5331 264.074 40.8211C264.074 36.1091 260.464 33.4491 256.854 33.4491C252.522 33.4491 249.748 36.8311 249.748 40.8211ZM276.204 50.1691H273.24V31.4731H276.204V50.1691ZM272.784 25.0511C272.784 23.9871 273.582 23.1511 274.722 23.1511C275.862 23.1511 276.66 23.9871 276.66 25.0511C276.66 26.1151 275.862 26.9511 274.722 26.9511C273.582 26.9511 272.784 26.1151 272.784 25.0511ZM285.367 50.1691H282.403V22.4291H285.367V50.1691Z"/>
</g>
<defs>
<linearGradient id="paint0_linear_6_3" x1="6.38536" y1="22.275" x2="17.1489" y2="4.9438" gradientUnits="userSpaceOnUse">
<stop stop-color="#600400"/>
<stop offset="1" stop-color="#600400" stop-opacity="0"/>
</linearGradient>
<linearGradient id="paint1_linear_6_3" x1="27.4575" y1="19.8039" x2="27.4575" y2="70.4375" gradientUnits="userSpaceOnUse">
<stop stop-color="#F9332B"/>
<stop offset="1" stop-color="#FF763C"/>
</linearGradient>
<linearGradient id="paint2_linear_6_3" x1="27.279" y1="3.8147e-06" x2="27.279" y2="36.7975" gradientUnits="userSpaceOnUse">
<stop stop-color="#C20800"/>
<stop offset="1" stop-color="#D81100"/>
</linearGradient>
<linearGradient id="paint3_linear_6_3" x1="32.1185" y1="15.471" x2="32.1185" y2="34.3207" gradientUnits="userSpaceOnUse">
<stop stop-color="#DB0800"/>
<stop offset="1" stop-color="#710400"/>
</linearGradient>
<linearGradient id="paint4_linear_6_3" x1="14.4919" y1="15.6905" x2="14.4919" y2="34.2062" gradientUnits="userSpaceOnUse">
<stop stop-color="#9D0701"/>
<stop offset="1" stop-color="#4B0300"/>
</linearGradient>
</defs>
</svg>
