<svg width="293" height="69" viewBox="0 0 293 69" fill="none" xmlns="http://www.w3.org/2000/svg">
<rect width="293" height="68.407" transform="translate(0 0.592987)" fill="white"/>
<circle cx="29.9739" cy="36.9739" r="29.9739" fill="url(#paint0_linear_7_136)"/>
<path d="M44.1015 55.5833C47.5033 58.2267 51.2761 60.2898 50.7813 62.0306C50.2865 63.7874 45.555 65.1897 40.6689 66.4147C35.7518 67.6397 30.711 68.6551 25.0208 68.091C19.3616 67.5269 13.0529 65.3993 11.1046 62.3368C9.15631 59.2743 11.5685 55.3093 16.2072 52.5208C20.846 49.7163 27.7422 48.1044 32.6902 48.9103C37.6691 49.7163 40.6998 52.9399 44.1015 55.5833Z" fill="white" fill-opacity="0.3"/>
<path fill-rule="evenodd" clip-rule="evenodd" d="M66.7823 33.5028C67.0401 33.2876 67.2527 33.0387 67.4162 32.7556C69.3955 29.3273 63.4205 22.1722 54.0708 16.7741C44.721 11.376 35.537 9.77915 33.5577 13.2074C33.5577 13.2074 33.5577 13.2074 33.5577 13.2074L33.5577 13.2074L33.5577 13.2075C33.3943 13.4905 33.2851 13.799 33.2276 14.1297L21.2816 47.5023C19.8421 49.9956 23.7282 54.9341 29.9613 58.5329C36.1945 62.1316 42.4144 63.0277 43.8539 60.5345L66.7823 33.5028Z" fill="black" fill-opacity="0.1"/>
<ellipse cx="33.5677" cy="54.0184" rx="13.0321" ry="5.21285" transform="rotate(30 33.5677 54.0184)" fill="#D9D9D9"/>
<path d="M34.5577 13.2074L68.4161 32.7556L44.8539 60.5345L22.2816 47.5023L34.5577 13.2074Z" fill="#D9D9D9"/>
<path d="M67.9831 32.5056C67.5878 33.1904 66.8023 33.68 65.596 33.9127C64.3915 34.1452 62.8316 34.1063 61.0092 33.7895C57.3686 33.1565 52.7907 31.4334 48.1531 28.7558C43.5155 26.0783 39.7343 22.9753 37.3658 20.1389C36.1802 18.7191 35.3666 17.3876 34.9656 16.2282C34.5641 15.0672 34.5953 14.1422 34.9907 13.4574C35.3861 12.7725 36.1716 12.283 37.3778 12.0502C38.5823 11.8178 40.1423 11.8566 41.9647 12.1735C45.6053 12.8065 50.1831 14.5296 54.8208 17.2071C59.4584 19.8846 63.2396 22.9877 65.6081 25.824C66.7937 27.2438 67.6073 28.5753 68.0082 29.7347C68.4098 30.8957 68.3785 31.8207 67.9831 32.5056Z" fill="url(#paint1_linear_7_136)" stroke="#E8E8E8"/>
<path d="M68 32.5C69.9793 29.0718 68.3498 15.8981 59 10.5C49.6502 5.10193 36.9793 10.0718 35 13.5" stroke="#E8E8E8"/>
<path d="M92.3388 50V23.0909H98.0281V45.3093H109.564V50H92.3388ZM118.982 50.381C117.694 50.381 116.547 50.1577 115.539 49.7109C114.532 49.2554 113.735 48.5853 113.148 47.7006C112.57 46.8072 112.281 45.6947 112.281 44.3633C112.281 43.2421 112.487 42.3004 112.898 41.5384C113.31 40.7763 113.871 40.1631 114.58 39.6989C115.29 39.2346 116.096 38.8842 116.998 38.6477C117.909 38.4112 118.864 38.2448 119.862 38.1484C121.036 38.0258 121.982 37.9119 122.7 37.8068C123.418 37.6929 123.94 37.5265 124.264 37.3075C124.588 37.0885 124.75 36.7644 124.75 36.3352V36.2564C124.75 35.4242 124.487 34.7804 123.962 34.3249C123.445 33.8694 122.709 33.6417 121.754 33.6417C120.747 33.6417 119.945 33.8651 119.35 34.3118C118.754 34.7498 118.36 35.3016 118.167 35.9673L112.99 35.5469C113.253 34.3205 113.77 33.2607 114.541 32.3672C115.312 31.465 116.306 30.773 117.523 30.2912C118.75 29.8007 120.169 29.5554 121.78 29.5554C122.902 29.5554 123.975 29.6868 125 29.9496C126.033 30.2124 126.949 30.6197 127.746 31.1715C128.552 31.7234 129.187 32.4329 129.651 33.3001C130.115 34.1585 130.347 35.1877 130.347 36.3878V50H125.039V47.2013H124.881C124.557 47.832 124.124 48.3883 123.581 48.87C123.037 49.343 122.385 49.7153 121.623 49.9869C120.861 50.2496 119.98 50.381 118.982 50.381ZM120.585 46.5181C121.408 46.5181 122.135 46.3561 122.766 46.032C123.397 45.6991 123.891 45.2524 124.251 44.6918C124.61 44.1312 124.789 43.4961 124.789 42.7866V40.6449C124.614 40.7588 124.373 40.8639 124.067 40.9602C123.769 41.0478 123.432 41.131 123.055 41.2099C122.678 41.2799 122.302 41.3456 121.925 41.407C121.548 41.4595 121.207 41.5077 120.9 41.5515C120.243 41.6478 119.669 41.8011 119.179 42.0114C118.688 42.2216 118.307 42.5063 118.036 42.8654C117.764 43.2158 117.628 43.6538 117.628 44.1793C117.628 44.9414 117.904 45.5239 118.456 45.9268C119.017 46.321 119.726 46.5181 120.585 46.5181ZM134.69 50V29.8182H140.116V33.3395H140.326C140.694 32.0869 141.312 31.1409 142.179 30.5014C143.046 29.8532 144.045 29.5291 145.175 29.5291C145.455 29.5291 145.757 29.5466 146.081 29.5817C146.406 29.6167 146.69 29.6649 146.935 29.7262V34.6928C146.673 34.614 146.309 34.5439 145.845 34.4826C145.381 34.4213 144.956 34.3906 144.57 34.3906C143.747 34.3906 143.011 34.5702 142.363 34.9293C141.724 35.2797 141.216 35.7702 140.839 36.4009C140.471 37.0316 140.287 37.7586 140.287 38.582V50H134.69ZM155.006 50.381C153.719 50.381 152.571 50.1577 151.564 49.7109C150.556 49.2554 149.759 48.5853 149.172 47.7006C148.594 46.8072 148.305 45.6947 148.305 44.3633C148.305 43.2421 148.511 42.3004 148.923 41.5384C149.334 40.7763 149.895 40.1631 150.605 39.6989C151.314 39.2346 152.12 38.8842 153.022 38.6477C153.933 38.4112 154.888 38.2448 155.887 38.1484C157.06 38.0258 158.006 37.9119 158.725 37.8068C159.443 37.6929 159.964 37.5265 160.288 37.3075C160.612 37.0885 160.774 36.7644 160.774 36.3352V36.2564C160.774 35.4242 160.512 34.7804 159.986 34.3249C159.469 33.8694 158.733 33.6417 157.779 33.6417C156.771 33.6417 155.97 33.8651 155.374 34.3118C154.778 34.7498 154.384 35.3016 154.192 35.9673L149.015 35.5469C149.278 34.3205 149.794 33.2607 150.565 32.3672C151.336 31.465 152.33 30.773 153.548 30.2912C154.774 29.8007 156.193 29.5554 157.805 29.5554C158.926 29.5554 159.999 29.6868 161.024 29.9496C162.058 30.2124 162.973 30.6197 163.77 31.1715C164.576 31.7234 165.211 32.4329 165.675 33.3001C166.14 34.1585 166.372 35.1877 166.372 36.3878V50H161.063V47.2013H160.906C160.582 47.832 160.148 48.3883 159.605 48.87C159.062 49.343 158.409 49.7153 157.647 49.9869C156.885 50.2496 156.005 50.381 155.006 50.381ZM156.609 46.5181C157.433 46.5181 158.16 46.3561 158.79 46.032C159.421 45.6991 159.916 45.2524 160.275 44.6918C160.634 44.1312 160.814 43.4961 160.814 42.7866V40.6449C160.639 40.7588 160.398 40.8639 160.091 40.9602C159.793 41.0478 159.456 41.131 159.079 41.2099C158.703 41.2799 158.326 41.3456 157.949 41.407C157.573 41.4595 157.231 41.5077 156.925 41.5515C156.268 41.6478 155.694 41.8011 155.203 42.0114C154.713 42.2216 154.332 42.5063 154.06 42.8654C153.789 43.2158 153.653 43.6538 153.653 44.1793C153.653 44.9414 153.929 45.5239 154.481 45.9268C155.041 46.321 155.751 46.5181 156.609 46.5181ZM188.807 29.8182L181.751 50H175.444L168.388 29.8182H174.301L178.493 44.2582H178.703L182.881 29.8182H188.807ZM200.218 50.3942C198.142 50.3942 196.355 49.9737 194.857 49.1328C193.368 48.2831 192.221 47.0831 191.415 45.5327C190.609 43.9735 190.206 42.1296 190.206 40.0011C190.206 37.9251 190.609 36.1031 191.415 34.5352C192.221 32.9672 193.355 31.7453 194.818 30.8693C196.29 29.9934 198.015 29.5554 199.995 29.5554C201.326 29.5554 202.566 29.77 203.713 30.1992C204.869 30.6197 205.877 31.2547 206.735 32.1044C207.602 32.9541 208.277 34.0227 208.759 35.3104C209.24 36.5893 209.481 38.0871 209.481 39.804V41.3413H192.44V37.8725H204.213C204.213 37.0666 204.037 36.3527 203.687 35.7308C203.337 35.1089 202.85 34.6228 202.229 34.2724C201.615 33.9132 200.901 33.7337 200.087 33.7337C199.237 33.7337 198.484 33.9308 197.827 34.3249C197.179 34.7103 196.671 35.2315 196.303 35.8885C195.935 36.5367 195.747 37.2594 195.738 38.0565V41.3544C195.738 42.353 195.922 43.2158 196.29 43.9428C196.666 44.6699 197.196 45.2305 197.879 45.6246C198.563 46.0188 199.373 46.2159 200.31 46.2159C200.932 46.2159 201.501 46.1283 202.018 45.9531C202.535 45.7779 202.977 45.5152 203.345 45.1648C203.713 44.8144 203.994 44.3852 204.186 43.8771L209.363 44.2188C209.1 45.4626 208.562 46.5488 207.747 47.4773C206.941 48.397 205.899 49.1153 204.62 49.6321C203.35 50.1402 201.883 50.3942 200.218 50.3942ZM218.731 23.0909V50H213.134V23.0909H218.731ZM234.962 50V23.0909H243.647C245.556 23.0909 247.15 23.4588 248.429 24.1946C249.717 24.9216 250.685 25.9115 251.333 27.1641C251.99 28.4167 252.318 29.8269 252.318 31.3949C252.318 32.9628 251.994 34.3775 251.346 35.6388C250.698 36.8915 249.734 37.8857 248.456 38.6214C247.177 39.3485 245.587 39.712 243.686 39.712H236.854V37.5046H243.62C245.031 37.5046 246.2 37.2418 247.128 36.7163C248.057 36.1819 248.749 35.4549 249.204 34.5352C249.669 33.6154 249.901 32.5687 249.901 31.3949C249.901 30.2211 249.669 29.1744 249.204 28.2546C248.749 27.3349 248.053 26.6122 247.115 26.0866C246.187 25.5611 245.009 25.2983 243.581 25.2983H237.419V50H234.962ZM263.237 50.4599C262.02 50.4599 260.907 50.2234 259.9 49.7504C258.892 49.2686 258.091 48.5766 257.495 47.6744C256.9 46.7634 256.602 45.6597 256.602 44.3633C256.602 43.3647 256.79 42.5238 257.167 41.8406C257.543 41.1573 258.078 40.5967 258.77 40.1587C259.462 39.7208 260.281 39.3748 261.227 39.1207C262.173 38.8667 263.215 38.6696 264.354 38.5295C265.484 38.3893 266.439 38.2667 267.218 38.1616C268.007 38.0565 268.607 37.89 269.018 37.6623C269.43 37.4345 269.636 37.0666 269.636 36.5586V36.0856C269.636 34.7103 269.224 33.6286 268.401 32.8402C267.586 32.0431 266.412 31.6445 264.88 31.6445C263.425 31.6445 262.239 31.9643 261.319 32.6037C260.408 33.2431 259.768 33.9964 259.4 34.8636L257.18 34.0621C257.635 32.9585 258.266 32.0781 259.072 31.4212C259.878 30.7554 260.78 30.2781 261.779 29.989C262.777 29.6912 263.789 29.5423 264.814 29.5423C265.585 29.5423 266.386 29.643 267.218 29.8445C268.059 30.0459 268.839 30.3963 269.557 30.8956C270.275 31.3861 270.858 32.0737 271.305 32.9585C271.751 33.8344 271.975 34.9469 271.975 36.2958V50H269.636V46.8072H269.491C269.211 47.4028 268.795 47.9809 268.243 48.5415C267.691 49.1022 266.999 49.562 266.167 49.9212C265.335 50.2803 264.358 50.4599 263.237 50.4599ZM263.552 48.3182C264.796 48.3182 265.874 48.0423 266.785 47.4904C267.696 46.9386 268.396 46.2071 268.887 45.2962C269.386 44.3764 269.636 43.3647 269.636 42.261V39.3441C269.461 39.5105 269.167 39.6594 268.756 39.7908C268.353 39.9222 267.884 40.0405 267.35 40.1456C266.824 40.2419 266.299 40.3252 265.773 40.3952C265.247 40.4653 264.774 40.5266 264.354 40.5792C263.215 40.7193 262.243 40.9383 261.437 41.2362C260.631 41.534 260.014 41.9457 259.584 42.4712C259.155 42.988 258.941 43.6538 258.941 44.4684C258.941 45.6947 259.379 46.6451 260.255 47.3196C261.13 47.9853 262.23 48.3182 263.552 48.3182ZM278.222 50V29.8182H280.574V50H278.222ZM279.418 26.3494C278.936 26.3494 278.525 26.1874 278.183 25.8633C277.841 25.5304 277.671 25.1319 277.671 24.6676C277.671 24.2034 277.841 23.8092 278.183 23.4851C278.525 23.1522 278.936 22.9858 279.418 22.9858C279.9 22.9858 280.312 23.1522 280.653 23.4851C280.995 23.8092 281.166 24.2034 281.166 24.6676C281.166 25.1319 280.995 25.5304 280.653 25.8633C280.312 26.1874 279.9 26.3494 279.418 26.3494ZM289.098 23.0909V50H286.76V23.0909H289.098Z" fill="black"/>
<defs>
<linearGradient id="paint0_linear_7_136" x1="29.9739" y1="7" x2="29.9739" y2="66.9478" gradientUnits="userSpaceOnUse">
<stop stop-color="#DF6D2D"/>
<stop offset="1" stop-color="#DF6D2D" stop-opacity="0.79"/>
</linearGradient>
<linearGradient id="paint1_linear_7_136" x1="55.0708" y1="16.7741" x2="47.9031" y2="29.1889" gradientUnits="userSpaceOnUse">
<stop stop-color="#393939"/>
<stop offset="1" stop-color="#7D7C7C"/>
</linearGradient>
</defs>
</svg>
