<svg width="395" height="64" viewBox="0 0 395 64" fill="none" xmlns="http://www.w3.org/2000/svg">
<rect width="64" height="64" fill="#B13BC7"/>
<path d="M13 16H51V24H13V16Z" fill="#FDFDFC"/>
<path d="M16 28H48V36H16V28Z" fill="#FDFDFC"/>
<path d="M19 40H45V48H19V40Z" fill="#FDFDFC"/>
<path d="M103.659 7.625H96V55.5535H118.046V48.5012H103.659V7.625Z" fill="white"/>
<path d="M145.087 27.9603C144.109 26.3627 142.722 25.1079 140.924 24.1946C139.126 23.2817 137.316 22.8251 135.496 22.8251C133.141 22.8251 130.988 23.2703 129.035 24.1602C127.08 25.0501 125.404 26.2723 124.006 27.8235C122.607 29.3757 121.519 31.1675 120.742 33.1978C119.964 35.2297 119.576 37.3643 119.576 39.6003C119.576 41.8831 119.964 44.0283 120.742 46.0362C121.519 48.0455 122.607 49.8258 124.006 51.377C125.404 52.9292 127.08 54.15 129.035 55.0399C130.988 55.9298 133.141 56.375 135.496 56.375C137.316 56.375 139.126 55.9183 140.924 55.0059C142.722 54.0936 144.11 52.8383 145.087 51.2402V55.5539H152.346V23.6471H145.087V27.9603ZM144.421 43.5027C143.977 44.7355 143.355 45.8081 142.556 46.7209C141.756 47.6342 140.791 48.3644 139.659 48.912C138.526 49.46 137.271 49.7335 135.895 49.7335C134.518 49.7335 133.275 49.46 132.165 48.912C131.054 48.364 130.1 47.6342 129.301 46.7209C128.502 45.8081 127.891 44.7355 127.469 43.5027C127.047 42.2705 126.837 40.9693 126.837 39.6003C126.837 38.2307 127.047 36.9296 127.469 35.6973C127.89 34.465 128.502 33.3929 129.301 32.4796C130.1 31.5672 131.055 30.8361 132.165 30.2886C133.275 29.7406 134.518 29.467 135.895 29.467C137.271 29.467 138.526 29.7406 139.659 30.2886C140.791 30.8366 141.756 31.5672 142.556 32.4796C143.355 33.3929 143.977 34.465 144.421 35.6973C144.864 36.9296 145.087 38.2307 145.087 39.6003C145.087 40.9693 144.864 42.2705 144.421 43.5027Z" fill="white"/>
<path d="M204.099 27.9603C203.121 26.3627 201.734 25.1079 199.936 24.1946C198.138 23.2817 196.328 22.8251 194.508 22.8251C192.153 22.8251 190.001 23.2703 188.047 24.1602C186.093 25.0501 184.417 26.2723 183.018 27.8235C181.619 29.3757 180.531 31.1675 179.754 33.1978C178.977 35.2297 178.589 37.3643 178.589 39.6003C178.589 41.8831 178.977 44.0283 179.754 46.0362C180.531 48.0455 181.619 49.8258 183.018 51.377C184.417 52.9292 186.092 54.15 188.047 55.0399C190 55.9298 192.153 56.375 194.508 56.375C196.328 56.375 198.138 55.9183 199.936 55.0059C201.734 54.0936 203.122 52.8383 204.099 51.2402V55.5539H211.359V23.6471H204.099V27.9603ZM203.433 43.5027C202.988 44.7355 202.367 45.8081 201.568 46.7209C200.768 47.6342 199.803 48.3644 198.67 48.912C197.538 49.46 196.283 49.7335 194.907 49.7335C193.53 49.7335 192.286 49.46 191.177 48.912C190.066 48.364 189.112 47.6342 188.313 46.7209C187.513 45.8081 186.903 44.7355 186.481 43.5027C186.058 42.2705 185.849 40.9693 185.849 39.6003C185.849 38.2307 186.058 36.9296 186.481 35.6973C186.902 34.465 187.513 33.3929 188.313 32.4796C189.112 31.5672 190.067 30.8361 191.177 30.2886C192.286 29.7406 193.53 29.467 194.907 29.467C196.283 29.467 197.538 29.7406 198.67 30.2886C199.803 30.8366 200.768 31.5672 201.568 32.4796C202.367 33.3929 202.988 34.465 203.433 35.6973C203.876 36.9296 204.099 38.2307 204.099 39.6003C204.099 40.9693 203.876 42.2705 203.433 43.5027Z" fill="white"/>
<path d="M291 7.625H283.741V55.5535H291V7.625Z" fill="white"/>
<path d="M158.075 55.5535H165.335V30.9901H177.79V23.6471H158.075V55.5535Z" fill="white"/>
<path d="M240.465 23.6471L231.34 48.0804L222.216 23.6471H214.862L226.778 55.5535H235.902L247.818 23.6471H240.465Z" fill="white"/>
<path d="M263.652 22.8265C254.762 22.8265 247.725 30.3369 247.725 39.6007C247.725 49.8416 254.536 56.375 264.582 56.375C270.205 56.375 273.795 54.1648 278.181 49.3514L273.276 45.4504C273.273 45.4542 269.574 50.4469 264.051 50.4469C257.631 50.4469 254.928 45.1262 254.928 42.3733H279.013C280.278 31.8326 273.537 22.8265 263.652 22.8265ZM254.947 36.8278C255.003 36.2138 255.839 28.7541 263.594 28.7541C271.349 28.7541 272.291 36.2128 272.345 36.8278H254.947Z" fill="white"/>
<path fill-rule="evenodd" clip-rule="evenodd" d="M352.198 22.9888C355.222 22.9888 357.763 23.7239 359.821 25.1938C361.362 26.2945 362.539 27.7365 363.35 29.52V23.5562H368.074V55.686H363.35V49.9175C362.497 51.6417 361.238 53.0609 359.569 54.1733C357.469 55.6013 354.95 56.3159 352.01 56.3159C349.112 56.3159 346.571 55.6227 344.387 54.2368C342.245 52.8508 340.565 50.9188 339.347 48.4409C338.171 45.9629 337.583 43.0646 337.583 39.7466C337.583 36.3869 338.191 33.4471 339.409 30.9272C340.627 28.4072 342.329 26.4539 344.513 25.0679C346.697 23.6819 349.258 22.9888 352.198 22.9888ZM352.954 27.3989C349.763 27.399 347.264 28.4908 345.458 30.6743C343.652 32.8583 342.748 35.8827 342.748 39.7466C342.748 43.5266 343.652 46.5089 345.458 48.6929C347.264 50.8346 349.762 51.9057 352.954 51.9058C356.188 51.9058 358.709 50.8134 360.515 48.6294C362.362 46.4035 363.286 43.3798 363.286 39.5581C363.286 35.8201 362.363 32.8583 360.515 30.6743C358.667 28.4904 356.146 27.3989 352.954 27.3989Z" fill="#A1A09A"/>
<path d="M381.038 55.6851H375.998V23.5552H381.038V55.6851Z" fill="#A1A09A"/>
<path d="M394.173 55.6851H389.133V10.3247H394.173V55.6851Z" fill="#A1A09A"/>
<path fill-rule="evenodd" clip-rule="evenodd" d="M321.018 7.68408C324.252 7.68408 327.003 8.20928 329.271 9.25928C331.539 10.3093 333.261 11.8215 334.437 13.7954C335.655 15.7694 336.264 19.1426 336.264 21.9146C336.264 24.6865 335.654 28.0803 334.437 30.0962C333.261 32.0699 331.539 33.6029 329.271 34.6948C327.003 35.7868 324.252 36.3335 321.018 36.3335H308.166V55.6841H303V7.68408H321.018ZM308.166 31.7974H320.829C324.189 31.7973 326.73 31.0408 328.452 29.5288C330.216 27.9748 331.098 24.7703 331.098 21.9146C331.098 19.0586 330.237 15.8953 328.515 14.4253C326.793 12.9554 324.231 12.2202 320.829 12.2202H308.166V31.7974Z" fill="#A1A09A"/>
<path d="M381.416 16.2466H375.62V10.3247H381.416V16.2466Z" fill="#A1A09A"/>
</svg>
