<svg width="395" height="64" viewBox="0 0 395 64" fill="none" xmlns="http://www.w3.org/2000/svg">
<rect width="64" height="64" fill="#B13BC7"/>
<path d="M13 16H51V24H13V16Z" fill="#FDFDFC"/>
<path d="M16 28H48V36H16V28Z" fill="#FDFDFC"/>
<path d="M19 40H45V48H19V40Z" fill="#FDFDFC"/>
<path d="M103.659 7.625H96V55.5535H118.046V48.5012H103.659V7.625Z" fill="#1B1B18"/>
<path d="M145.087 27.9603C144.109 26.3627 142.722 25.1079 140.924 24.1946C139.126 23.2817 137.316 22.8251 135.496 22.8251C133.141 22.8251 130.988 23.2703 129.035 24.1602C127.08 25.0501 125.404 26.2723 124.006 27.8235C122.607 29.3757 121.519 31.1675 120.742 33.1978C119.964 35.2297 119.576 37.3643 119.576 39.6003C119.576 41.8831 119.964 44.0283 120.742 46.0362C121.519 48.0455 122.607 49.8258 124.006 51.377C125.404 52.9292 127.08 54.15 129.035 55.0399C130.988 55.9298 133.141 56.375 135.496 56.375C137.316 56.375 139.126 55.9183 140.924 55.0059C142.722 54.0936 144.11 52.8383 145.087 51.2402V55.5539H152.346V23.6471H145.087V27.9603ZM144.421 43.5027C143.977 44.7355 143.355 45.8081 142.556 46.7209C141.756 47.6342 140.791 48.3644 139.659 48.912C138.526 49.46 137.271 49.7335 135.895 49.7335C134.518 49.7335 133.275 49.46 132.165 48.912C131.054 48.364 130.1 47.6342 129.301 46.7209C128.502 45.8081 127.891 44.7355 127.469 43.5027C127.047 42.2705 126.837 40.9693 126.837 39.6003C126.837 38.2307 127.047 36.9296 127.469 35.6973C127.89 34.465 128.502 33.3929 129.301 32.4796C130.1 31.5672 131.055 30.8361 132.165 30.2886C133.275 29.7406 134.518 29.467 135.895 29.467C137.271 29.467 138.526 29.7406 139.659 30.2886C140.791 30.8366 141.756 31.5672 142.556 32.4796C143.355 33.3929 143.977 34.465 144.421 35.6973C144.864 36.9296 145.087 38.2307 145.087 39.6003C145.087 40.9693 144.864 42.2705 144.421 43.5027Z" fill="#1B1B18"/>
<path d="M204.099 27.9603C203.121 26.3627 201.734 25.1079 199.936 24.1946C198.138 23.2817 196.328 22.8251 194.508 22.8251C192.153 22.8251 190.001 23.2703 188.047 24.1602C186.093 25.0501 184.417 26.2723 183.018 27.8235C181.619 29.3757 180.531 31.1675 179.754 33.1978C178.977 35.2297 178.589 37.3643 178.589 39.6003C178.589 41.8831 178.977 44.0283 179.754 46.0362C180.531 48.0455 181.619 49.8258 183.018 51.377C184.417 52.9292 186.092 54.15 188.047 55.0399C190 55.9298 192.153 56.375 194.508 56.375C196.328 56.375 198.138 55.9183 199.936 55.0059C201.734 54.0936 203.122 52.8383 204.099 51.2402V55.5539H211.359V23.6471H204.099V27.9603ZM203.433 43.5027C202.988 44.7355 202.367 45.8081 201.568 46.7209C200.768 47.6342 199.803 48.3644 198.67 48.912C197.538 49.46 196.283 49.7335 194.907 49.7335C193.53 49.7335 192.286 49.46 191.177 48.912C190.066 48.364 189.112 47.6342 188.313 46.7209C187.513 45.8081 186.903 44.7355 186.481 43.5027C186.058 42.2705 185.849 40.9693 185.849 39.6003C185.849 38.2307 186.058 36.9296 186.481 35.6973C186.902 34.465 187.513 33.3929 188.313 32.4796C189.112 31.5672 190.067 30.8361 191.177 30.2886C192.286 29.7406 193.53 29.467 194.907 29.467C196.283 29.467 197.538 29.7406 198.67 30.2886C199.803 30.8366 200.768 31.5672 201.568 32.4796C202.367 33.3929 202.988 34.465 203.433 35.6973C203.876 36.9296 204.099 38.2307 204.099 39.6003C204.099 40.9693 203.876 42.2705 203.433 43.5027Z" fill="#1B1B18"/>
<path d="M291 7.625H283.741V55.5535H291V7.625Z" fill="#1B1B18"/>
<path d="M158.075 55.5535H165.335V30.9901H177.79V23.6471H158.075V55.5535Z" fill="#1B1B18"/>
<path d="M240.465 23.6471L231.34 48.0804L222.216 23.6471H214.862L226.778 55.5535H235.902L247.818 23.6471H240.465Z" fill="#1B1B18"/>
<path d="M263.652 22.8265C254.762 22.8265 247.725 30.3369 247.725 39.6007C247.725 49.8416 254.536 56.375 264.582 56.375C270.205 56.375 273.795 54.1648 278.181 49.3514L273.276 45.4504C273.273 45.4542 269.574 50.4469 264.051 50.4469C257.631 50.4469 254.928 45.1262 254.928 42.3733H279.013C280.278 31.8326 273.537 22.8265 263.652 22.8265ZM254.947 36.8278C255.003 36.2138 255.839 28.7541 263.594 28.7541C271.349 28.7541 272.291 36.2128 272.345 36.8278H254.947Z" fill="#1B1B18"/>
<path fill-rule="evenodd" clip-rule="evenodd" d="M352.198 22.7397C355.222 22.7397 357.763 23.4749 359.821 24.9448C361.362 26.0455 362.539 27.4875 363.35 29.271V23.3071H368.074V55.437H363.35V49.6685C362.497 51.3927 361.238 52.8119 359.569 53.9243C357.469 55.3523 354.95 56.0669 352.01 56.0669C349.112 56.0669 346.571 55.3737 344.387 53.9878C342.245 52.6018 340.565 50.6698 339.347 48.1919C338.171 45.7139 337.583 42.8156 337.583 39.4976C337.583 36.1379 338.191 33.1981 339.409 30.6782C340.627 28.1582 342.329 26.2048 344.513 24.8188C346.697 23.4329 349.258 22.7398 352.198 22.7397ZM352.954 27.1499C349.763 27.15 347.264 28.2417 345.458 30.4253C343.652 32.6093 342.748 35.6336 342.748 39.4976C342.748 43.2776 343.652 46.2598 345.458 48.4438C347.264 50.5856 349.762 51.6566 352.954 51.6567C356.188 51.6567 358.709 50.5644 360.515 48.3804C362.362 46.1545 363.286 43.1308 363.286 39.3091C363.286 35.5711 362.363 32.6093 360.515 30.4253C358.667 28.2414 356.146 27.1499 352.954 27.1499Z" fill="#868682"/>
<path d="M381.038 55.436H375.998V23.3062H381.038V55.436Z" fill="#868682"/>
<path d="M394.173 55.436H389.133V10.0757H394.173V55.436Z" fill="#868682"/>
<path fill-rule="evenodd" clip-rule="evenodd" d="M321.018 7.43506C324.252 7.43506 327.003 7.96025 329.271 9.01025C331.539 10.0602 333.261 11.5725 334.437 13.5464C335.655 15.5204 336.264 18.8935 336.264 21.6655C336.264 24.4374 335.654 27.8313 334.437 29.8472C333.261 31.8209 331.539 33.3539 329.271 34.4458C327.003 35.5378 324.252 36.0845 321.018 36.0845H308.166V55.4351H303V7.43506H321.018ZM308.166 31.5483H320.829C324.189 31.5483 326.73 30.7918 328.452 29.2798C330.216 27.7258 331.098 24.5213 331.098 21.6655C331.098 18.8095 330.237 15.6463 328.515 14.1763C326.793 12.7063 324.231 11.9712 320.829 11.9712H308.166V31.5483Z" fill="#868682"/>
<path d="M381.416 15.9976H375.62V10.0757H381.416V15.9976Z" fill="#868682"/>
</svg>
